# xmcd
#
# Track frame offsets:
#	150
#	4847
#	21050
#	36450
#	57369
#	73382
#	83682
#	101040
#	117490
#	135802
#	151978
#	170766
#	186352
#
# Disc length: 3285 seconds
#
# Revision: 1
# Processed by: cddbd v1.5.2PL0 Copyright (c) Steve Scherf et al.
# Submitted via: audiograbber 1.83.01
#
DISCID=b10cd30d
DTITLE=Seasick Steve - Dog House Music
DYEAR=2006
DGENRE=Blues
TTITLE0=Yellow Dog
TTITLE1=Things Go Up
TTITLE2=Cut My Wings
TTITLE3=Fallen Off A Rock
TTITLE4=Dog House Boogie
TTITLE5=Save Me
TTITLE6=Hobo Low
TTITLE7=Shirly Lou
TTITLE8=My Donny
TTITLE9=The Dead Song
TTITLE10=Last Po' Man
TTITLE11=Salem Blues
TTITLE12=I'm Gone
EXTD=
EXTT0=
EXTT1=
EXTT2=
EXTT3=
EXTT4=
EXTT5=
EXTT6=
EXTT7=
EXTT8=
EXTT9=
EXTT10=
EXTT11=
EXTT12=
PLAYORDER=
